<svg width="38" height="38" viewBox="0 0 38 38" fill="none" xmlns="http://www.w3.org/2000/svg">
<ellipse cx="27.6539" cy="17.3513" rx="8.20242" ry="8.20075" fill="url(#paint0_linear_1_174)"/>
<g filter="url(#filter0_bi_1_174)">
<path fill-rule="evenodd" clip-rule="evenodd" d="M17.4008 0C11.2145 0 6.19843 5.01417 6.19843 11.2007V15.3011H3.99601C2.33916 15.3011 0.99601 16.6442 0.99601 18.3011V34.8531C0.99601 36.51 2.33915 37.8531 3.99601 37.8531H30.8057C32.4625 37.8531 33.8057 36.51 33.8057 34.8531V18.3011C33.8057 16.6442 32.4625 15.3011 30.8057 15.3011H12.1984V11.2007C12.1984 8.32903 14.5271 6 17.4008 6C20.2746 6 22.6033 8.32903 22.6033 11.2007C22.6033 12.8576 23.9464 14.2007 25.6033 14.2007C27.2601 14.2007 28.6033 12.8576 28.6033 11.2007C28.6033 5.01417 23.5872 0 17.4008 0Z" fill="#1D1D1D" fill-opacity="0.05"/>
<path fill-rule="evenodd" clip-rule="evenodd" d="M17.4008 0C11.2145 0 6.19843 5.01417 6.19843 11.2007V15.3011H3.99601C2.33916 15.3011 0.99601 16.6442 0.99601 18.3011V34.8531C0.99601 36.51 2.33915 37.8531 3.99601 37.8531H30.8057C32.4625 37.8531 33.8057 36.51 33.8057 34.8531V18.3011C33.8057 16.6442 32.4625 15.3011 30.8057 15.3011H12.1984V11.2007C12.1984 8.32903 14.5271 6 17.4008 6C20.2746 6 22.6033 8.32903 22.6033 11.2007C22.6033 12.8576 23.9464 14.2007 25.6033 14.2007C27.2601 14.2007 28.6033 12.8576 28.6033 11.2007C28.6033 5.01417 23.5872 0 17.4008 0Z" fill="url(#paint1_linear_1_174)" fill-opacity="0.2"/>
</g>
<g filter="url(#filter1_i_1_174)">
<path fill-rule="evenodd" clip-rule="evenodd" d="M19.4506 27.054C20.6769 26.3452 21.502 25.0198 21.502 23.5017C21.502 21.2372 19.6659 19.4014 17.4008 19.4014C15.1358 19.4014 13.2996 21.2372 13.2996 23.5017C13.2996 25.0195 14.1244 26.3446 15.3502 27.0536L15.3502 32.7526C15.3502 33.3049 15.798 33.7526 16.3502 33.7526H18.4506C19.0029 33.7526 19.4506 33.3049 19.4506 32.7526V27.054Z" fill="white" fill-opacity="0.4"/>
</g>
<defs>
<filter id="filter0_bi_1_174" x="-2.00399" y="-3" width="38.8097" height="43.8531" filterUnits="userSpaceOnUse" color-interpolation-filters="sRGB">
<feFlood flood-opacity="0" result="BackgroundImageFix"/>
<feGaussianBlur in="BackgroundImage" stdDeviation="1.5"/>
<feComposite in2="SourceAlpha" operator="in" result="effect1_backgroundBlur_1_174"/>
<feBlend mode="normal" in="SourceGraphic" in2="effect1_backgroundBlur_1_174" result="shape"/>
<feColorMatrix in="SourceAlpha" type="matrix" values="0 0 0 0 0 0 0 0 0 0 0 0 0 0 0 0 0 0 127 0" result="hardAlpha"/>
<feOffset dy="0.5"/>
<feGaussianBlur stdDeviation="1"/>
<feComposite in2="hardAlpha" operator="arithmetic" k2="-1" k3="1"/>
<feColorMatrix type="matrix" values="0 0 0 0 1 0 0 0 0 1 0 0 0 0 1 0 0 0 0.15 0"/>
<feBlend mode="normal" in2="shape" result="effect2_innerShadow_1_174"/>
</filter>
<filter id="filter1_i_1_174" x="13.2996" y="19.4014" width="8.20242" height="14.8513" filterUnits="userSpaceOnUse" color-interpolation-filters="sRGB">
<feFlood flood-opacity="0" result="BackgroundImageFix"/>
<feBlend mode="normal" in="SourceGraphic" in2="BackgroundImageFix" result="shape"/>
<feColorMatrix in="SourceAlpha" type="matrix" values="0 0 0 0 0 0 0 0 0 0 0 0 0 0 0 0 0 0 127 0" result="hardAlpha"/>
<feOffset dy="0.5"/>
<feGaussianBlur stdDeviation="0.25"/>
<feComposite in2="hardAlpha" operator="arithmetic" k2="-1" k3="1"/>
<feColorMatrix type="matrix" values="0 0 0 0 1 0 0 0 0 1 0 0 0 0 1 0 0 0 0.1 0"/>
<feBlend mode="normal" in2="shape" result="effect1_innerShadow_1_174"/>
</filter>
<linearGradient id="paint0_linear_1_174" x1="19.4514" y1="9.15051" x2="35.4429" y2="25.1452" gradientUnits="userSpaceOnUse">
<stop stop-color="#61EDE0"/>
<stop offset="1" stop-color="#08645A"/>
</linearGradient>
<linearGradient id="paint1_linear_1_174" x1="0.99601" y1="0" x2="37.5287" y2="31.6652" gradientUnits="userSpaceOnUse">
<stop stop-color="#BAF2B5"/>
<stop offset="1" stop-color="#26AAD4"/>
</linearGradient>
</defs>
</svg>
