<svg width="38" height="38" viewBox="0 0 38 38" fill="none" xmlns="http://www.w3.org/2000/svg">
<path fill-rule="evenodd" clip-rule="evenodd" d="M19.0002 14.7776C19.7669 14.7776 20.4733 15.1933 20.8456 15.8635L31.4011 34.8633C31.9673 35.8825 31.6001 37.1677 30.5809 37.734C29.5617 38.3002 28.2764 37.933 27.7102 36.9138L19.0002 21.2357L10.2902 36.9138C9.72394 37.933 8.4387 38.3002 7.41951 37.734C6.40031 37.1677 6.0331 35.8825 6.59932 34.8633L17.1548 15.8635C17.5271 15.1933 18.2335 14.7776 19.0002 14.7776Z" fill="url(#paint0_linear_1_163)"/>
<g filter="url(#filter0_bi_1_163)">
<rect width="37.9996" height="29.5552" rx="2" fill="#1D1D1D" fill-opacity="0.05"/>
<rect width="37.9996" height="29.5552" rx="2" fill="url(#paint1_linear_1_163)" fill-opacity="0.2"/>
<rect x="0.1" y="0.1" width="37.7996" height="29.3552" rx="1.9" stroke="url(#paint2_linear_1_163)" stroke-opacity="0.1" stroke-width="0.2"/>
</g>
<g filter="url(#filter1_i_1_163)">
<rect x="2.11108" y="23.2218" width="33.7774" height="4.22218" rx="1" fill="white" fill-opacity="0.4"/>
</g>
<defs>
<filter id="filter0_bi_1_163" x="-3" y="-3" width="43.9996" height="35.5552" filterUnits="userSpaceOnUse" color-interpolation-filters="sRGB">
<feFlood flood-opacity="0" result="BackgroundImageFix"/>
<feGaussianBlur in="BackgroundImage" stdDeviation="1.5"/>
<feComposite in2="SourceAlpha" operator="in" result="effect1_backgroundBlur_1_163"/>
<feBlend mode="normal" in="SourceGraphic" in2="effect1_backgroundBlur_1_163" result="shape"/>
<feColorMatrix in="SourceAlpha" type="matrix" values="0 0 0 0 0 0 0 0 0 0 0 0 0 0 0 0 0 0 127 0" result="hardAlpha"/>
<feOffset dy="0.5"/>
<feGaussianBlur stdDeviation="1"/>
<feComposite in2="hardAlpha" operator="arithmetic" k2="-1" k3="1"/>
<feColorMatrix type="matrix" values="0 0 0 0 1 0 0 0 0 1 0 0 0 0 1 0 0 0 0.15 0"/>
<feBlend mode="normal" in2="shape" result="effect2_innerShadow_1_163"/>
</filter>
<filter id="filter1_i_1_163" x="2.11108" y="23.2218" width="33.7774" height="4.72217" filterUnits="userSpaceOnUse" color-interpolation-filters="sRGB">
<feFlood flood-opacity="0" result="BackgroundImageFix"/>
<feBlend mode="normal" in="SourceGraphic" in2="BackgroundImageFix" result="shape"/>
<feColorMatrix in="SourceAlpha" type="matrix" values="0 0 0 0 0 0 0 0 0 0 0 0 0 0 0 0 0 0 127 0" result="hardAlpha"/>
<feOffset dy="0.5"/>
<feGaussianBlur stdDeviation="0.25"/>
<feComposite in2="hardAlpha" operator="arithmetic" k2="-1" k3="1"/>
<feColorMatrix type="matrix" values="0 0 0 0 1 0 0 0 0 1 0 0 0 0 1 0 0 0 0.1 0"/>
<feBlend mode="normal" in2="shape" result="effect1_innerShadow_1_163"/>
</filter>
<linearGradient id="paint0_linear_1_163" x1="6.33327" y1="14.7776" x2="28.8896" y2="39.3849" gradientUnits="userSpaceOnUse">
<stop stop-color="#61EDE0"/>
<stop offset="1" stop-color="#08645A"/>
</linearGradient>
<linearGradient id="paint1_linear_1_163" x1="0" y1="0" x2="27.9297" y2="35.9096" gradientUnits="userSpaceOnUse">
<stop stop-color="#BAF2B5"/>
<stop offset="1" stop-color="#26AAD4"/>
</linearGradient>
<linearGradient id="paint2_linear_1_163" x1="1.18749" y1="1.34342" x2="37.9996" y2="1.34342" gradientUnits="userSpaceOnUse">
<stop stop-color="#ADECB8"/>
<stop offset="1" stop-color="#2FAED3"/>
</linearGradient>
</defs>
</svg>
