<svg width="38" height="38" viewBox="0 0 38 38" fill="none" xmlns="http://www.w3.org/2000/svg">
<path d="M10.4 30.8C10.7777 30.2964 11.3705 30 12 30H26C26.6295 30 27.2223 30.2964 27.6 30.8L31.8 36.4C32.2944 37.0592 31.824 38 31 38H7C6.17595 38 5.70557 37.0592 6.2 36.4L10.4 30.8Z" fill="url(#paint0_linear_1_182)"/>
<g filter="url(#filter0_bi_1_182)">
<path d="M33 14C33 24 22 34 19 34C16 34 5 24 5 14C5 6.26801 11.268 0 19 0C26.732 0 33 6.26801 33 14Z" fill="#1D1D1D" fill-opacity="0.05"/>
<path d="M33 14C33 24 22 34 19 34C16 34 5 24 5 14C5 6.26801 11.268 0 19 0C26.732 0 33 6.26801 33 14Z" fill="url(#paint1_linear_1_182)" fill-opacity="0.2"/>
<path d="M32.9 14C32.9 18.9661 30.1667 23.9438 27.0482 27.686C25.4901 29.5557 23.8393 31.1127 22.393 32.2013C21.6697 32.7457 20.9992 33.1718 20.4183 33.4612C19.8347 33.7521 19.3515 33.9 19 33.9C18.6484 33.9 18.1653 33.7521 17.5817 33.4612C17.0008 33.1718 16.3303 32.7457 15.607 32.2013C14.1606 31.1127 12.5099 29.5557 10.9518 27.686C7.83332 23.9438 5.1 18.9661 5.1 14C5.1 6.32324 11.3232 0.1 19 0.1C26.6767 0.1 32.9 6.32324 32.9 14Z" stroke="url(#paint2_linear_1_182)" stroke-opacity="0.1" stroke-width="0.2"/>
</g>
<g filter="url(#filter1_i_1_182)">
<circle cx="19" cy="14" r="5.99999" fill="white" fill-opacity="0.4"/>
</g>
<defs>
<filter id="filter0_bi_1_182" x="2" y="-3" width="34" height="39.9999" filterUnits="userSpaceOnUse" color-interpolation-filters="sRGB">
<feFlood flood-opacity="0" result="BackgroundImageFix"/>
<feGaussianBlur in="BackgroundImage" stdDeviation="1.5"/>
<feComposite in2="SourceAlpha" operator="in" result="effect1_backgroundBlur_1_182"/>
<feBlend mode="normal" in="SourceGraphic" in2="effect1_backgroundBlur_1_182" result="shape"/>
<feColorMatrix in="SourceAlpha" type="matrix" values="0 0 0 0 0 0 0 0 0 0 0 0 0 0 0 0 0 0 127 0" result="hardAlpha"/>
<feOffset dy="0.5"/>
<feGaussianBlur stdDeviation="1"/>
<feComposite in2="hardAlpha" operator="arithmetic" k2="-1" k3="1"/>
<feColorMatrix type="matrix" values="0 0 0 0 1 0 0 0 0 1 0 0 0 0 1 0 0 0 0.15 0"/>
<feBlend mode="normal" in2="shape" result="effect2_innerShadow_1_182"/>
</filter>
<filter id="filter1_i_1_182" x="13" y="8" width="12" height="12.5" filterUnits="userSpaceOnUse" color-interpolation-filters="sRGB">
<feFlood flood-opacity="0" result="BackgroundImageFix"/>
<feBlend mode="normal" in="SourceGraphic" in2="BackgroundImageFix" result="shape"/>
<feColorMatrix in="SourceAlpha" type="matrix" values="0 0 0 0 0 0 0 0 0 0 0 0 0 0 0 0 0 0 127 0" result="hardAlpha"/>
<feOffset dy="0.5"/>
<feGaussianBlur stdDeviation="0.25"/>
<feComposite in2="hardAlpha" operator="arithmetic" k2="-1" k3="1"/>
<feColorMatrix type="matrix" values="0 0 0 0 1 0 0 0 0 1 0 0 0 0 1 0 0 0 0.1 0"/>
<feBlend mode="normal" in2="shape" result="effect1_innerShadow_1_182"/>
</filter>
<linearGradient id="paint0_linear_1_182" x1="5" y1="30" x2="9.12075" y2="44.4226" gradientUnits="userSpaceOnUse">
<stop stop-color="#61EDE0"/>
<stop offset="1" stop-color="#08645A"/>
</linearGradient>
<linearGradient id="paint1_linear_1_182" x1="5" y1="0" x2="37.5348" y2="26.7934" gradientUnits="userSpaceOnUse">
<stop stop-color="#BAF2B5"/>
<stop offset="1" stop-color="#26AAD4"/>
</linearGradient>
<linearGradient id="paint2_linear_1_182" x1="5.875" y1="1.54545" x2="33" y2="1.54545" gradientUnits="userSpaceOnUse">
<stop stop-color="#ADECB8"/>
<stop offset="1" stop-color="#2FAED3"/>
</linearGradient>
</defs>
</svg>
