<svg width="38" height="38" viewBox="0 0 38 38" fill="none" xmlns="http://www.w3.org/2000/svg">
<circle cx="19.4285" cy="29.5555" r="8.44444" fill="url(#paint0_linear_1_160)"/>
<g filter="url(#filter0_bi_1_160)">
<path d="M19.4283 0C12.4327 0 6.76167 5.67106 6.76167 12.6667V23.5844C6.76167 26.0559 5.77986 28.4262 4.03223 30.1739C2.70231 31.5038 3.64421 33.7778 5.52501 33.7778H33.3316C35.2125 33.7778 36.1544 31.5038 34.8244 30.1739C33.0768 28.4262 32.095 26.0559 32.095 23.5844V12.6667C32.095 5.67106 26.4239 0 19.4283 0Z" fill="#1D1D1D" fill-opacity="0.05"/>
<path d="M19.4283 0C12.4327 0 6.76167 5.67106 6.76167 12.6667V23.5844C6.76167 26.0559 5.77986 28.4262 4.03223 30.1739C2.70231 31.5038 3.64421 33.7778 5.52501 33.7778H33.3316C35.2125 33.7778 36.1544 31.5038 34.8244 30.1739C33.0768 28.4262 32.095 26.0559 32.095 23.5844V12.6667C32.095 5.67106 26.4239 0 19.4283 0Z" fill="url(#paint1_linear_1_160)" fill-opacity="0.2"/>
<path d="M6.86167 12.6667C6.86167 5.72629 12.488 0.1 19.4283 0.1C26.3687 0.1 31.995 5.72629 31.995 12.6667V23.5844C31.995 26.0825 32.9873 28.4782 34.7537 30.2446C36.0206 31.5115 35.1234 33.6778 33.3316 33.6778H5.52501C3.7333 33.6778 2.83601 31.5115 4.10294 30.2446C5.86933 28.4782 6.86167 26.0825 6.86167 23.5844V12.6667Z" stroke="url(#paint2_linear_1_160)" stroke-opacity="0.1" stroke-width="0.2"/>
</g>
<defs>
<filter id="filter0_bi_1_160" x="0.409668" y="-3" width="38.0373" height="39.7778" filterUnits="userSpaceOnUse" color-interpolation-filters="sRGB">
<feFlood flood-opacity="0" result="BackgroundImageFix"/>
<feGaussianBlur in="BackgroundImage" stdDeviation="1.5"/>
<feComposite in2="SourceAlpha" operator="in" result="effect1_backgroundBlur_1_160"/>
<feBlend mode="normal" in="SourceGraphic" in2="effect1_backgroundBlur_1_160" result="shape"/>
<feColorMatrix in="SourceAlpha" type="matrix" values="0 0 0 0 0 0 0 0 0 0 0 0 0 0 0 0 0 0 127 0" result="hardAlpha"/>
<feOffset dy="0.5"/>
<feGaussianBlur stdDeviation="1"/>
<feComposite in2="hardAlpha" operator="arithmetic" k2="-1" k3="1"/>
<feColorMatrix type="matrix" values="0 0 0 0 1 0 0 0 0 1 0 0 0 0 1 0 0 0 0.15 0"/>
<feBlend mode="normal" in2="shape" result="effect2_innerShadow_1_160"/>
</filter>
<linearGradient id="paint0_linear_1_160" x1="10.9841" y1="21.1111" x2="27.4508" y2="37.5777" gradientUnits="userSpaceOnUse">
<stop stop-color="#61EDE0"/>
<stop offset="1" stop-color="#08645A"/>
</linearGradient>
<linearGradient id="paint1_linear_1_160" x1="3.40967" y1="0" x2="36.297" y2="31.1927" gradientUnits="userSpaceOnUse">
<stop stop-color="#BAF2B5"/>
<stop offset="1" stop-color="#26AAD4"/>
</linearGradient>
<linearGradient id="paint2_linear_1_160" x1="4.41083" y1="1.53535" x2="35.447" y2="1.53535" gradientUnits="userSpaceOnUse">
<stop stop-color="#ADECB8"/>
<stop offset="1" stop-color="#2FAED3"/>
</linearGradient>
</defs>
</svg>
