<svg width="38" height="38" viewBox="0 0 38 38" fill="none" xmlns="http://www.w3.org/2000/svg">
<circle cx="29.0588" cy="10.5882" r="8.94118" fill="url(#paint0_linear_1_151)"/>
<circle cx="8.94118" cy="17.2941" r="2.23529" fill="url(#paint1_linear_1_151)"/>
<circle cx="17.8824" cy="17.2941" r="2.23529" fill="url(#paint2_linear_1_151)"/>
<circle cx="26.8236" cy="17.2941" r="2.23529" fill="url(#paint3_linear_1_151)"/>
<g filter="url(#filter0_bi_1_151)">
<path d="M8.94118 3.88226C4.0031 3.88226 0 7.88537 0 12.8234V21.7646C0 26.7027 4.0031 30.7058 8.94118 30.7058H17.6054C17.7866 30.7058 17.9645 30.7551 18.1199 30.8483L28.3016 36.9573C28.6348 37.1573 29.0588 36.9172 29.0588 36.5286V30.8117C29.0588 30.5836 29.2138 30.3858 29.432 30.3193C33.0976 29.203 35.7647 25.7953 35.7647 21.7646V12.8234C35.7647 7.88537 31.7616 3.88226 26.8235 3.88226H8.94118Z" fill="#1D1D1D" fill-opacity="0.05"/>
<path d="M8.94118 3.88226C4.0031 3.88226 0 7.88537 0 12.8234V21.7646C0 26.7027 4.0031 30.7058 8.94118 30.7058H17.6054C17.7866 30.7058 17.9645 30.7551 18.1199 30.8483L28.3016 36.9573C28.6348 37.1573 29.0588 36.9172 29.0588 36.5286V30.8117C29.0588 30.5836 29.2138 30.3858 29.432 30.3193C33.0976 29.203 35.7647 25.7953 35.7647 21.7646V12.8234C35.7647 7.88537 31.7616 3.88226 26.8235 3.88226H8.94118Z" fill="url(#paint4_linear_1_151)" fill-opacity="0.2"/>
<path d="M0.1 12.8234C0.1 7.94059 4.05833 3.98226 8.94118 3.98226H26.8235C31.7064 3.98226 35.6647 7.94059 35.6647 12.8234V21.7646C35.6647 25.75 33.0276 29.1198 29.4029 30.2236C29.1451 30.3022 28.9588 30.537 28.9588 30.8117V36.5286C28.9588 36.8395 28.6196 37.0316 28.353 36.8716L18.1713 30.7626C18.0004 30.66 17.8047 30.6058 17.6054 30.6058H8.94118C4.05833 30.6058 0.1 26.6475 0.1 21.7646V12.8234Z" stroke="url(#paint5_linear_1_151)" stroke-opacity="0.1" stroke-width="0.2"/>
</g>
<g filter="url(#filter1_i_1_151)">
<circle cx="8.94118" cy="17.2941" r="2.23529" fill="white" fill-opacity="0.4"/>
</g>
<g filter="url(#filter2_i_1_151)">
<circle cx="17.8824" cy="17.2941" r="2.23529" fill="white" fill-opacity="0.4"/>
</g>
<g filter="url(#filter3_i_1_151)">
<circle cx="26.8236" cy="17.2941" r="2.23529" fill="white" fill-opacity="0.4"/>
</g>
<defs>
<filter id="filter0_bi_1_151" x="-3" y="0.882263" width="41.7647" height="39.1471" filterUnits="userSpaceOnUse" color-interpolation-filters="sRGB">
<feFlood flood-opacity="0" result="BackgroundImageFix"/>
<feGaussianBlur in="BackgroundImage" stdDeviation="1.5"/>
<feComposite in2="SourceAlpha" operator="in" result="effect1_backgroundBlur_1_151"/>
<feBlend mode="normal" in="SourceGraphic" in2="effect1_backgroundBlur_1_151" result="shape"/>
<feColorMatrix in="SourceAlpha" type="matrix" values="0 0 0 0 0 0 0 0 0 0 0 0 0 0 0 0 0 0 127 0" result="hardAlpha"/>
<feOffset dy="0.5"/>
<feGaussianBlur stdDeviation="1"/>
<feComposite in2="hardAlpha" operator="arithmetic" k2="-1" k3="1"/>
<feColorMatrix type="matrix" values="0 0 0 0 1 0 0 0 0 1 0 0 0 0 1 0 0 0 0.15 0"/>
<feBlend mode="normal" in2="shape" result="effect2_innerShadow_1_151"/>
</filter>
<filter id="filter1_i_1_151" x="6.70589" y="15.0588" width="4.4706" height="4.97058" filterUnits="userSpaceOnUse" color-interpolation-filters="sRGB">
<feFlood flood-opacity="0" result="BackgroundImageFix"/>
<feBlend mode="normal" in="SourceGraphic" in2="BackgroundImageFix" result="shape"/>
<feColorMatrix in="SourceAlpha" type="matrix" values="0 0 0 0 0 0 0 0 0 0 0 0 0 0 0 0 0 0 127 0" result="hardAlpha"/>
<feOffset dy="0.5"/>
<feGaussianBlur stdDeviation="0.25"/>
<feComposite in2="hardAlpha" operator="arithmetic" k2="-1" k3="1"/>
<feColorMatrix type="matrix" values="0 0 0 0 1 0 0 0 0 1 0 0 0 0 1 0 0 0 0.1 0"/>
<feBlend mode="normal" in2="shape" result="effect1_innerShadow_1_151"/>
</filter>
<filter id="filter2_i_1_151" x="15.6471" y="15.0588" width="4.4706" height="4.97058" filterUnits="userSpaceOnUse" color-interpolation-filters="sRGB">
<feFlood flood-opacity="0" result="BackgroundImageFix"/>
<feBlend mode="normal" in="SourceGraphic" in2="BackgroundImageFix" result="shape"/>
<feColorMatrix in="SourceAlpha" type="matrix" values="0 0 0 0 0 0 0 0 0 0 0 0 0 0 0 0 0 0 127 0" result="hardAlpha"/>
<feOffset dy="0.5"/>
<feGaussianBlur stdDeviation="0.25"/>
<feComposite in2="hardAlpha" operator="arithmetic" k2="-1" k3="1"/>
<feColorMatrix type="matrix" values="0 0 0 0 1 0 0 0 0 1 0 0 0 0 1 0 0 0 0.1 0"/>
<feBlend mode="normal" in2="shape" result="effect1_innerShadow_1_151"/>
</filter>
<filter id="filter3_i_1_151" x="24.5883" y="15.0588" width="4.4706" height="4.97058" filterUnits="userSpaceOnUse" color-interpolation-filters="sRGB">
<feFlood flood-opacity="0" result="BackgroundImageFix"/>
<feBlend mode="normal" in="SourceGraphic" in2="BackgroundImageFix" result="shape"/>
<feColorMatrix in="SourceAlpha" type="matrix" values="0 0 0 0 0 0 0 0 0 0 0 0 0 0 0 0 0 0 127 0" result="hardAlpha"/>
<feOffset dy="0.5"/>
<feGaussianBlur stdDeviation="0.25"/>
<feComposite in2="hardAlpha" operator="arithmetic" k2="-1" k3="1"/>
<feColorMatrix type="matrix" values="0 0 0 0 1 0 0 0 0 1 0 0 0 0 1 0 0 0 0.1 0"/>
<feBlend mode="normal" in2="shape" result="effect1_innerShadow_1_151"/>
</filter>
<linearGradient id="paint0_linear_1_151" x1="20.1176" y1="1.64697" x2="37.5529" y2="19.0823" gradientUnits="userSpaceOnUse">
<stop stop-color="#61EDE0"/>
<stop offset="1" stop-color="#08645A"/>
</linearGradient>
<linearGradient id="paint1_linear_1_151" x1="6.70589" y1="15.0588" x2="11.0647" y2="19.4177" gradientUnits="userSpaceOnUse">
<stop stop-color="#61EDE0"/>
<stop offset="1" stop-color="#08645A"/>
</linearGradient>
<linearGradient id="paint2_linear_1_151" x1="15.6471" y1="15.0588" x2="20.0059" y2="19.4177" gradientUnits="userSpaceOnUse">
<stop stop-color="#61EDE0"/>
<stop offset="1" stop-color="#08645A"/>
</linearGradient>
<linearGradient id="paint3_linear_1_151" x1="24.5883" y1="15.0588" x2="28.9471" y2="19.4177" gradientUnits="userSpaceOnUse">
<stop stop-color="#61EDE0"/>
<stop offset="1" stop-color="#08645A"/>
</linearGradient>
<linearGradient id="paint4_linear_1_151" x1="0" y1="3.88226" x2="32.6232" y2="38.6804" gradientUnits="userSpaceOnUse">
<stop stop-color="#BAF2B5"/>
<stop offset="1" stop-color="#26AAD4"/>
</linearGradient>
<linearGradient id="paint5_linear_1_151" x1="1.11765" y1="5.40633" x2="35.7647" y2="5.40633" gradientUnits="userSpaceOnUse">
<stop stop-color="#ADECB8"/>
<stop offset="1" stop-color="#2FAED3"/>
</linearGradient>
</defs>
</svg>
