<svg width="38" height="38" viewBox="0 0 38 38" fill="none" xmlns="http://www.w3.org/2000/svg">
<path d="M27.4444 6C27.4444 4.89543 26.549 4 25.4444 4H1.99998C0.895412 4 -1.71661e-05 4.89543 -1.71661e-05 6V27.7153C-1.71661e-05 28.4587 0.782295 28.9422 1.4472 28.6097L8.44443 25.1111H25.4444C26.549 25.1111 27.4444 24.2157 27.4444 23.1111V6Z" fill="url(#paint0_linear_1_1755)"/>
<g filter="url(#filter0_bi_1_1755)">
<path d="M10.5555 12.3332C10.5555 11.2287 11.451 10.3333 12.5555 10.3333H36C37.1046 10.3333 38 11.2287 38 12.3333V34.0486C38 34.7919 37.2177 35.2754 36.5528 34.943L29.5555 31.4444H12.5555C11.451 31.4444 10.5555 30.5489 10.5555 29.4444V12.3332Z" fill="#1D1D1D" fill-opacity="0.05"/>
<path d="M10.5555 12.3332C10.5555 11.2287 11.451 10.3333 12.5555 10.3333H36C37.1046 10.3333 38 11.2287 38 12.3333V34.0486C38 34.7919 37.2177 35.2754 36.5528 34.943L29.5555 31.4444H12.5555C11.451 31.4444 10.5555 30.5489 10.5555 29.4444V12.3332Z" fill="url(#paint1_linear_1_1755)" fill-opacity="0.2"/>
<path d="M29.6003 31.3549L29.5791 31.3444H29.5555H12.5555C11.5062 31.3444 10.6555 30.4937 10.6555 29.4444V12.3332C10.6555 11.2839 11.5062 10.4333 12.5555 10.4333H36C37.0493 10.4333 37.9 11.2839 37.9 12.3333V34.0486C37.9 34.7176 37.1959 35.1527 36.5975 34.8535L29.6003 31.3549Z" stroke="url(#paint2_linear_1_1755)" stroke-opacity="0.1" stroke-width="0.2"/>
</g>
<g filter="url(#filter1_i_1_1755)">
<rect x="14.7778" y="14.5555" width="19" height="4.22222" rx="1" fill="white" fill-opacity="0.4"/>
</g>
<g filter="url(#filter2_i_1_1755)">
<rect x="14.7778" y="22.9999" width="19" height="4.22222" rx="1" fill="white" fill-opacity="0.4"/>
</g>
<defs>
<filter id="filter0_bi_1_1755" x="7.55554" y="7.33325" width="33.4444" height="30.7166" filterUnits="userSpaceOnUse" color-interpolation-filters="sRGB">
<feFlood flood-opacity="0" result="BackgroundImageFix"/>
<feGaussianBlur in="BackgroundImage" stdDeviation="1.5"/>
<feComposite in2="SourceAlpha" operator="in" result="effect1_backgroundBlur_1_1755"/>
<feBlend mode="normal" in="SourceGraphic" in2="effect1_backgroundBlur_1_1755" result="shape"/>
<feColorMatrix in="SourceAlpha" type="matrix" values="0 0 0 0 0 0 0 0 0 0 0 0 0 0 0 0 0 0 127 0" result="hardAlpha"/>
<feOffset dy="0.5"/>
<feGaussianBlur stdDeviation="1"/>
<feComposite in2="hardAlpha" operator="arithmetic" k2="-1" k3="1"/>
<feColorMatrix type="matrix" values="0 0 0 0 1 0 0 0 0 1 0 0 0 0 1 0 0 0 0.15 0"/>
<feBlend mode="normal" in2="shape" result="effect2_innerShadow_1_1755"/>
</filter>
<filter id="filter1_i_1_1755" x="14.7778" y="14.5555" width="19" height="4.72223" filterUnits="userSpaceOnUse" color-interpolation-filters="sRGB">
<feFlood flood-opacity="0" result="BackgroundImageFix"/>
<feBlend mode="normal" in="SourceGraphic" in2="BackgroundImageFix" result="shape"/>
<feColorMatrix in="SourceAlpha" type="matrix" values="0 0 0 0 0 0 0 0 0 0 0 0 0 0 0 0 0 0 127 0" result="hardAlpha"/>
<feOffset dy="0.5"/>
<feGaussianBlur stdDeviation="0.25"/>
<feComposite in2="hardAlpha" operator="arithmetic" k2="-1" k3="1"/>
<feColorMatrix type="matrix" values="0 0 0 0 1 0 0 0 0 1 0 0 0 0 1 0 0 0 0.1 0"/>
<feBlend mode="normal" in2="shape" result="effect1_innerShadow_1_1755"/>
</filter>
<filter id="filter2_i_1_1755" x="14.7778" y="22.9999" width="19" height="4.72223" filterUnits="userSpaceOnUse" color-interpolation-filters="sRGB">
<feFlood flood-opacity="0" result="BackgroundImageFix"/>
<feBlend mode="normal" in="SourceGraphic" in2="BackgroundImageFix" result="shape"/>
<feColorMatrix in="SourceAlpha" type="matrix" values="0 0 0 0 0 0 0 0 0 0 0 0 0 0 0 0 0 0 127 0" result="hardAlpha"/>
<feOffset dy="0.5"/>
<feGaussianBlur stdDeviation="0.25"/>
<feComposite in2="hardAlpha" operator="arithmetic" k2="-1" k3="1"/>
<feColorMatrix type="matrix" values="0 0 0 0 1 0 0 0 0 1 0 0 0 0 1 0 0 0 0.1 0"/>
<feBlend mode="normal" in2="shape" result="effect1_innerShadow_1_1755"/>
</filter>
<linearGradient id="paint0_linear_1_1755" x1="27.4444" y1="4" x2="2.82334" y2="30.6728" gradientUnits="userSpaceOnUse">
<stop stop-color="#61EDE0"/>
<stop offset="1" stop-color="#08645A"/>
</linearGradient>
<linearGradient id="paint1_linear_1_1755" x1="10.5555" y1="10.3333" x2="35.1766" y2="37.0061" gradientUnits="userSpaceOnUse">
<stop stop-color="#BAF2B5"/>
<stop offset="1" stop-color="#26AAD4"/>
</linearGradient>
<linearGradient id="paint2_linear_1_1755" x1="11.4132" y1="11.4848" x2="38" y2="11.4848" gradientUnits="userSpaceOnUse">
<stop stop-color="#ADECB8"/>
<stop offset="1" stop-color="#2FAED3"/>
</linearGradient>
</defs>
</svg>
