<svg width="128" height="128" viewBox="0 0 128 128" fill="none" xmlns="http://www.w3.org/2000/svg">
<circle cx="64" cy="64" r="64" fill="url(#paint0_radial_1_419)" fill-opacity="0.5"/>
<g filter="url(#filter0_di_1_419)">
<rect x="15.6734" y="15.6734" width="95.3469" height="96.6531" rx="47.6735" fill="url(#paint1_linear_1_419)"/>
</g>
<g filter="url(#filter1_df_1_419)">
<rect x="24.8163" y="24.8163" width="78.3673" height="78.3673" rx="39.1837" fill="url(#paint2_linear_1_419)"/>
</g>
<path d="M56.64 51.7333C56.64 47.6685 59.9352 44.3733 64 44.3733C68.0648 44.3733 71.36 47.6685 71.36 51.7333V56.64H76.2667V51.7333C76.2667 44.9587 70.7747 39.4667 64 39.4667C57.2253 39.4667 51.7333 44.9587 51.7333 51.7333V56.64H56.64V51.7333ZM64 78.72C62.6454 78.7204 61.547 77.6225 61.5467 76.268C61.5467 76.2675 61.5467 76.2671 61.5467 76.2667V68.9067C61.5467 67.5517 62.645 66.4533 64 66.4533C65.3549 66.4533 66.4533 67.5517 66.4533 68.9067V76.2667C66.4537 77.6213 65.3559 78.7197 64.0013 78.72C64.0009 78.72 64.0004 78.72 64 78.72Z" fill="white" fill-opacity="0.8"/>
<path d="M76.2667 56.64H51.7333C47.6685 56.64 44.3733 59.9352 44.3733 64V81.1733C44.3733 85.2381 47.6685 88.5333 51.7333 88.5333H76.2667C80.3315 88.5333 83.6267 85.2381 83.6267 81.1733V64C83.6267 59.9352 80.3315 56.64 76.2667 56.64ZM66.4533 76.2667C66.4536 77.6212 65.3559 78.7197 64.0013 78.72C64.0009 78.72 64.0004 78.72 64 78.72C62.6455 78.7203 61.547 77.6225 61.5467 76.268C61.5467 76.2676 61.5467 76.2671 61.5467 76.2667V68.9067C61.5467 67.5517 62.645 66.4533 64 66.4533C65.355 66.4533 66.4533 67.5517 66.4533 68.9067V76.2667Z" fill="white"/>
<defs>
<filter id="filter0_di_1_419" x="13.6734" y="15.6734" width="100.347" height="100.653" filterUnits="userSpaceOnUse" color-interpolation-filters="sRGB">
<feFlood flood-opacity="0" result="BackgroundImageFix"/>
<feColorMatrix in="SourceAlpha" type="matrix" values="0 0 0 0 0 0 0 0 0 0 0 0 0 0 0 0 0 0 127 0" result="hardAlpha"/>
<feOffset dy="2"/>
<feGaussianBlur stdDeviation="1"/>
<feComposite in2="hardAlpha" operator="out"/>
<feColorMatrix type="matrix" values="0 0 0 0 1 0 0 0 0 0.847252 0 0 0 0 0.2125 0 0 0 0.48 0"/>
<feBlend mode="normal" in2="BackgroundImageFix" result="effect1_dropShadow_1_419"/>
<feBlend mode="normal" in="SourceGraphic" in2="effect1_dropShadow_1_419" result="shape"/>
<feColorMatrix in="SourceAlpha" type="matrix" values="0 0 0 0 0 0 0 0 0 0 0 0 0 0 0 0 0 0 127 0" result="hardAlpha"/>
<feOffset dx="3" dy="3"/>
<feGaussianBlur stdDeviation="2"/>
<feComposite in2="hardAlpha" operator="arithmetic" k2="-1" k3="1"/>
<feColorMatrix type="matrix" values="0 0 0 0 1 0 0 0 0 0.987877 0 0 0 0 0.9375 0 0 0 0.42 0"/>
<feBlend mode="normal" in2="shape" result="effect2_innerShadow_1_419"/>
</filter>
<filter id="filter1_df_1_419" x="22.8163" y="22.8163" width="82.3673" height="82.3673" filterUnits="userSpaceOnUse" color-interpolation-filters="sRGB">
<feFlood flood-opacity="0" result="BackgroundImageFix"/>
<feColorMatrix in="SourceAlpha" type="matrix" values="0 0 0 0 0 0 0 0 0 0 0 0 0 0 0 0 0 0 127 0" result="hardAlpha"/>
<feOffset dx="-1" dy="-2"/>
<feComposite in2="hardAlpha" operator="out"/>
<feColorMatrix type="matrix" values="0 0 0 0 1 0 0 0 0 0.921606 0 0 0 0 0.595833 0 0 0 1 0"/>
<feBlend mode="screen" in2="BackgroundImageFix" result="effect1_dropShadow_1_419"/>
<feBlend mode="normal" in="SourceGraphic" in2="effect1_dropShadow_1_419" result="shape"/>
<feGaussianBlur stdDeviation="1" result="effect2_foregroundBlur_1_419"/>
</filter>
<radialGradient id="paint0_radial_1_419" cx="0" cy="0" r="1" gradientUnits="userSpaceOnUse" gradientTransform="translate(64 64) rotate(90) scale(64)">
<stop stop-color="#FDD015" stop-opacity="0.65"/>
<stop offset="1" stop-color="#FDD015" stop-opacity="0"/>
</radialGradient>
<linearGradient id="paint1_linear_1_419" x1="105.723" y1="95.1437" x2="22.056" y2="18.956" gradientUnits="userSpaceOnUse">
<stop stop-color="#FF9800"/>
<stop offset="1" stop-color="#FDD015"/>
</linearGradient>
<linearGradient id="paint2_linear_1_419" x1="98.8299" y1="89.2517" x2="30.9115" y2="26.5578" gradientUnits="userSpaceOnUse">
<stop stop-color="#FF9800"/>
<stop offset="1" stop-color="#FDD015"/>
</linearGradient>
</defs>
</svg>
