<svg width="24" height="24" viewBox="0 0 24 24" fill="none" xmlns="http://www.w3.org/2000/svg">
<path d="M21.09 6.97999C20.24 6.03999 18.82 5.56999 16.76 5.56999H16.52V5.52999C16.52 3.84999 16.52 1.76999 12.76 1.76999H11.24C7.48001 1.76999 7.48001 3.85999 7.48001 5.52999V5.57999H7.24001C5.17001 5.57999 3.76001 6.04999 2.91001 6.98999C1.92001 8.08999 1.95001 9.56999 2.05001 10.58L2.06001 10.65L2.16001 11.7C2.17001 11.71 2.19001 11.73 2.21001 11.74C2.54001 11.96 2.88001 12.18 3.24001 12.38C3.38001 12.47 3.53001 12.55 3.68001 12.63C5.39001 13.57 7.27001 14.2 9.18001 14.51C9.27001 15.45 9.68001 16.55 11.87 16.55C14.06 16.55 14.49 15.46 14.56 14.49C16.6 14.16 18.57 13.45 20.35 12.41C20.41 12.38 20.45 12.35 20.5 12.32C20.96 12.06 21.39 11.78 21.81 11.47C21.83 11.46 21.85 11.44 21.86 11.42L21.9 11.06L21.95 10.59C21.96 10.53 21.96 10.48 21.97 10.41C22.05 9.39999 22.03 8.01999 21.09 6.97999ZM13.09 13.83C13.09 14.89 13.09 15.05 11.86 15.05C10.63 15.05 10.63 14.86 10.63 13.84V12.58H13.09V13.83ZM8.91001 5.56999V5.52999C8.91001 3.82999 8.91001 3.19999 11.24 3.19999H12.76C15.09 3.19999 15.09 3.83999 15.09 5.52999V5.57999H8.91001V5.56999Z" fill="#126156"/>
<path opacity="0.4" d="M20.5 12.3C20.45 12.33 20.4 12.36 20.35 12.39C18.57 13.43 16.6 14.13 14.56 14.47C14.48 15.43 14.06 16.53 11.87 16.53C9.68 16.53 9.26 15.44 9.18 14.49C7.27 14.19 5.39 13.56 3.68 12.61C3.53 12.53 3.38 12.45 3.24 12.36C2.88 12.16 2.54 11.94 2.21 11.72C2.19 11.71 2.17 11.69 2.16 11.68L2.77 18.19C2.98 20.18 3.8 22.23 8.2 22.23H15.82C20.22 22.23 21.04 20.18 21.25 18.18L21.88 11.4C21.87 11.42 21.85 11.44 21.83 11.45C21.4 11.76 20.96 12.05 20.5 12.3Z" fill="#126156"/>
</svg>
