<svg width="54" height="54" viewBox="0 0 54 54" fill="none" xmlns="http://www.w3.org/2000/svg">
<circle opacity="0.3" cx="27" cy="27" r="22" fill="#5CC2AD" fill-opacity="0.3"/>
<circle opacity="0.3" cx="27" cy="27" r="27" fill="#5CC2AD" fill-opacity="0.3"/>
<path d="M25.6774 17.4174L20.6874 19.2874C19.5374 19.7174 18.5975 21.0774 18.5975 22.3074V29.7374C18.5975 30.9174 19.3775 32.4674 20.3275 33.1774L24.6274 36.3874C26.0374 37.4474 28.3574 37.4474 29.7674 36.3874L34.0674 33.1774C35.0174 32.4674 35.7974 30.9174 35.7974 29.7374V22.3074C35.7974 21.0774 34.8574 19.7174 33.7074 19.2874L28.7174 17.4174C27.8674 17.1074 26.5074 17.1074 25.6774 17.4174Z" stroke="#5CC2AD" stroke-width="2" stroke-linecap="round" stroke-linejoin="round"/>
<path d="M27.1875 30.6875C29.3966 30.6875 31.1875 28.8966 31.1875 26.6875C31.1875 24.4784 29.3966 22.6875 27.1875 22.6875C24.9783 22.6875 23.1875 24.4784 23.1875 26.6875C23.1875 28.8966 24.9783 30.6875 27.1875 30.6875Z" stroke="#5CC2AD" stroke-width="2" stroke-miterlimit="10" stroke-linecap="round" stroke-linejoin="round"/>
<path d="M27.4375 25.4376V26.3676C27.4375 26.7176 27.2576 27.0476 26.9476 27.2276L26.1875 27.6876" stroke="#5CC2AD" stroke-width="2" stroke-miterlimit="10" stroke-linecap="round" stroke-linejoin="round"/>
</svg>
