<svg width="28" height="28" viewBox="0 0 28 28" fill="none" xmlns="http://www.w3.org/2000/svg">
<path d="M9.91667 22.1666H9.33334C4.66667 22.1666 2.33334 21 2.33334 15.1666V9.33331C2.33334 4.66665 4.66667 2.33331 9.33334 2.33331H18.6667C23.3333 2.33331 25.6667 4.66665 25.6667 9.33331V15.1666C25.6667 19.8333 23.3333 22.1666 18.6667 22.1666H18.0833C17.7217 22.1666 17.3717 22.3416 17.15 22.6333L15.4 24.9666C14.63 25.9933 13.37 25.9933 12.6 24.9666L10.85 22.6333C10.6633 22.3766 10.2317 22.1666 9.91667 22.1666Z" stroke="#126156" stroke-width="1.5" stroke-miterlimit="10" stroke-linecap="round" stroke-linejoin="round"/>
<path d="M8.16666 9.33331H19.8333" stroke="#126156" stroke-width="1.5" stroke-linecap="round" stroke-linejoin="round"/>
<path d="M8.16666 15.1667H15.1667" stroke="#126156" stroke-width="1.5" stroke-linecap="round" stroke-linejoin="round"/>
</svg>
